<?xml version="1.0" encoding="UTF-8" standalone="no"?>
<svg
   xmlns:dc="http://purl.org/dc/elements/1.1/"
   xmlns:cc="http://creativecommons.org/ns#"
   xmlns:rdf="http://www.w3.org/1999/02/22-rdf-syntax-ns#"
   xmlns:svg="http://www.w3.org/2000/svg"
   xmlns="http://www.w3.org/2000/svg"
   viewBox="0 0 280 78.666664"
   height="78.666664"
   width="280"
   xml:space="preserve"
   id="svg2"
   version="1.1"><metadata
     id="metadata8"><rdf:RDF><cc:Work
         rdf:about=""><dc:format>image/svg+xml</dc:format><dc:type
           rdf:resource="http://purl.org/dc/dcmitype/StillImage" /></cc:Work></rdf:RDF></metadata><defs
     id="defs6" /><g
     transform="matrix(1.3333333,0,0,-1.3333333,0,78.666667)"
     id="g10"><g
       transform="scale(0.1)"
       id="g12"><path
         id="path14"
         style="fill:#ffffff;fill-opacity:1;fill-rule:evenodd;stroke:none"
         d="M 41.1094,125.203 C 18.8555,138.051 7.22266,167.75 7.22266,192.375 c 0,84.945 0,169.891 0,254.84 L 235,578.477 c 22.344,11.726 47.961,11.699 69.934,-0.965 L 531.047,447.215 c 0,-86.68 0,-173.36 0,-260.039 0,-26.309 -12.844,-49.828 -35.781,-63.067 L 300.918,11.8984 C 282.859,1.47656 258.434,-0.269531 240.07,10.3281 152.59,60.8359 132.438,72.4727 41.1094,125.203" /><path
         id="path16"
         style="fill:#383536;fill-opacity:1;fill-rule:nonzero;stroke:none"
         d="m 683.109,161.344 10.504,12.582 c -6.937,7.336 -17.738,11.894 -28.043,11.894 -21.211,0 -37.164,-15.062 -37.164,-35.082 0,-20.414 15.559,-35.675 36.469,-35.675 10.305,0 21.402,5.054 28.836,12.882 l -10.602,11.399 c -4.859,-4.957 -11.496,-8.129 -17.246,-8.129 -10.699,0 -18.828,8.523 -18.828,19.723 0,11.097 8.129,19.519 18.828,19.519 6.047,0 12.688,-3.562 17.246,-9.113 z m 60.02,24.476 c -21.504,0 -37.563,-14.965 -37.563,-35.183 0,-20.313 16.059,-35.574 37.563,-35.574 21.504,0 37.559,15.261 37.559,35.574 0,20.121 -16.055,35.183 -37.559,35.183 z m 0.195,-15.461 c 10.406,0 18.731,-8.523 18.731,-19.816 0,-11.301 -8.325,-20.02 -18.731,-20.02 -10.304,0 -19.125,8.719 -19.125,20.02 0,11.293 8.723,19.816 19.125,19.816 z m 56.156,14.965 v -69.469 h 16.946 v 41.625 l 31.515,-41.625 h 15.856 v 69.469 h -16.848 v -41.82 l -31.511,41.82 z m 135.536,-21.406 6.836,14.371 c -7.235,4.656 -17.543,7.828 -27.747,7.828 -16.75,0 -27.75,-8.226 -27.75,-21.207 0,-24.574 36.571,-17.441 36.571,-29.234 0,-3.668 -3.371,-5.649 -8.723,-5.649 -7.23,0 -18.035,4.36 -25.172,10.504 l -7.035,-14.172 c 8.324,-6.836 20.414,-11.097 32.008,-11.097 15.461,0 27.949,7.234 27.949,21.406 0,24.973 -36.57,18.434 -36.57,29.926 0,3.172 2.875,4.758 7.234,4.758 5.75,0 15.063,-3.27 22.399,-7.434 z m 19.882,21.406 v -14.965 h 20.614 v -54.504 h 18.133 v 54.504 h 20.815 v 14.965 z m 138.902,-69.469 -14.46,22.696 c 8.02,4.16 12.38,11.89 12.38,22.394 0,15.461 -10.51,24.379 -28.94,24.379 h -31.21 v -69.469 h 18.13 v 19.227 h 13.48 l 10.11,-19.227 z m -44.1,55 h 13.18 c 7.33,0 11.6,-3.667 11.6,-10.503 0,-7.036 -4.27,-10.801 -11.6,-10.801 h -13.18 z m 80.34,-25.863 v 40.332 h -18.14 v -40.332 c 0,-18.336 12.59,-29.929 32.21,-29.929 19.52,0 31.81,11.593 31.81,29.929 v 40.332 h -18.13 v -40.332 c 0,-9.019 -5.56,-14.469 -13.58,-14.469 -8.23,0 -14.17,5.547 -14.17,14.469 z m 118.19,16.352 10.5,12.582 c -6.93,7.336 -17.73,11.894 -28.04,11.894 -21.21,0 -37.17,-15.062 -37.17,-35.082 0,-20.414 15.56,-35.675 36.47,-35.675 10.31,0 21.41,5.054 28.84,12.882 l -10.6,11.399 c -4.86,-4.957 -11.5,-8.129 -17.25,-8.129 -10.7,0 -18.82,8.523 -18.82,19.723 0,11.097 8.12,19.519 18.82,19.519 6.05,0 12.69,-3.562 17.25,-9.113 z m 77.16,0 10.5,12.582 c -6.93,7.336 -17.73,11.894 -28.04,11.894 -21.21,0 -37.16,-15.062 -37.16,-35.082 0,-20.414 15.56,-35.675 36.47,-35.675 10.3,0 21.4,5.054 28.84,12.882 l -10.61,11.399 c -4.85,-4.957 -11.5,-8.129 -17.25,-8.129 -10.69,0 -18.82,8.523 -18.82,19.723 0,11.097 8.13,19.519 18.82,19.519 6.05,0 12.69,-3.562 17.25,-9.113 z m 28.11,23.98 v -69.469 h 18.14 v 69.469 z m 75.48,22.692 -10.6,-16.942 h 13.37 l 12.99,11.395 z m -0.99,-22.196 c -21.51,0 -37.56,-14.965 -37.56,-35.183 0,-20.313 16.05,-35.574 37.56,-35.574 21.5,0 37.56,15.261 37.56,35.574 0,20.121 -16.06,35.183 -37.56,35.183 z m 0.2,-15.461 c 10.4,0 18.73,-8.523 18.73,-19.816 0,-11.301 -8.33,-20.02 -18.73,-20.02 -10.31,0 -19.13,8.719 -19.13,20.02 0,11.293 8.72,19.816 19.13,19.816 z m 56.15,14.965 v -69.469 h 16.95 v 41.625 l 31.51,-41.625 h 15.86 v 69.469 h -16.85 v -41.82 l -31.51,41.82 z m 117.4,0 v -69.469 h 55.79 v 14.469 h -37.65 v 13.051 l 33.09,0.098 v 14.386 h -33.09 v 12.996 h 36.66 v 14.469 z m 76.67,0 v -69.469 h 16.94 v 41.625 l 31.52,-41.625 h 15.85 v 69.469 h -16.84 v -41.82 l -31.52,41.82 z m 165.26,-21.406 6.84,14.371 c -7.24,4.656 -17.54,7.828 -27.75,7.828 -16.75,0 -27.74,-8.226 -27.74,-21.207 0,-24.574 36.56,-17.441 36.56,-29.234 0,-3.668 -3.37,-5.649 -8.72,-5.649 -7.23,0 -18.04,4.36 -25.17,10.504 l -7.04,-14.172 c 8.33,-6.836 20.42,-11.097 32.01,-11.097 15.46,0 27.95,7.234 27.95,21.406 0,24.973 -36.57,18.434 -36.57,29.926 0,3.172 2.87,4.758 7.23,4.758 5.75,0 15.07,-3.27 22.4,-7.434 z m 25.93,21.406 v -69.469 h 55.79 v 14.469 h -37.66 v 13.051 l 33.11,0.098 v 14.386 h -33.11 v 12.996 h 36.67 v 14.469 z m 126.91,-23.98 10.51,12.582 c -6.94,7.336 -17.74,11.894 -28.05,11.894 -21.21,0 -37.16,-15.062 -37.16,-35.082 0,-20.414 15.55,-35.675 36.47,-35.675 10.3,0 21.4,5.054 28.83,12.882 l -10.6,11.399 c -4.85,-4.957 -11.49,-8.129 -17.24,-8.129 -10.7,0 -18.83,8.523 -18.83,19.723 0,11.097 8.13,19.519 18.83,19.519 6.04,0 12.68,-3.562 17.24,-9.113 z m 60.02,24.476 c -21.5,0 -37.56,-14.965 -37.56,-35.183 0,-20.313 16.06,-35.574 37.56,-35.574 21.51,0 37.56,15.261 37.56,35.574 0,20.121 -16.05,35.183 -37.56,35.183 z m 0.2,-15.461 c 10.4,0 18.73,-8.523 18.73,-19.816 0,-11.301 -8.33,-20.02 -18.73,-20.02 -10.31,0 -19.13,8.719 -19.13,20.02 0,11.293 8.72,19.816 19.13,19.816 z M 695.043,448.445 v 24.45 h -65.73 V 240.961 h 65.73 v 24.398 h -36.746 v 79.598 h 36.242 v 24.195 h -36.242 v 79.293 z m 67.73,24.45 H 713.168 V 240.961 h 49.605 c 33.27,0 39.571,13.359 39.571,43.859 v 144.168 c 0,30.547 -6.301,43.907 -39.571,43.907 z m 10.586,-188.329 c 0,-14.871 -4.035,-19.207 -16.89,-19.207 h -14.313 v 183.086 h 14.313 c 12.855,0 16.89,-4.281 16.89,-19.203 z m 136.536,113.219 v 33.824 c 0,33.067 -18.653,43.657 -44.868,43.657 -25.906,0 -44.558,-10.59 -44.558,-43.657 V 282.195 c 0,-33.066 18.652,-43.652 44.558,-43.652 26.215,0 44.868,10.586 44.868,43.652 v 86.051 h -46.883 v -23.594 h 19.156 v -62.203 c 0,-14.922 -6.805,-19.207 -16.383,-19.207 -9.828,0 -16.332,4.285 -16.332,19.207 v 148.91 c 0,14.918 7.008,19.204 15.574,19.204 8.825,0 15.883,-4.286 15.883,-19.204 V 397.785 Z M 996.02,240.914 h 28.18 L 997.785,472.895 H 946.117 L 919.652,240.914 h 28.227 l 5.043,47.231 h 38.058 z m -40.325,71.68 14.368,133.988 h 3.781 l 14.363,-133.988 z m 175.255,-71.68 -19.11,80.551 c 10.03,6.301 15.32,17.644 15.32,35.039 v 72.484 c 0,30.547 -6.3,43.907 -39.06,43.907 h -49.51 V 240.914 h 28.99 v 73.496 h 20.26 l 16.69,-73.496 z m -63.37,96.18 v 111.351 h 13.91 c 13.21,0 17.24,-4.082 17.24,-19.203 V 356.25 c 0,-15.125 -4.03,-19.156 -17.24,-19.156 z m 125.9,135.801 h -49.6 V 240.961 h 49.6 c 33.27,0 39.57,13.359 39.57,43.859 v 144.168 c 0,30.547 -6.3,43.907 -39.57,43.907 z m 10.59,-188.329 c 0,-14.871 -4.03,-19.207 -16.89,-19.207 h -14.32 v 183.086 h 14.32 c 12.86,0 16.89,-4.281 16.89,-19.203 z m 91.67,190.7 c -25.91,0 -44.56,-10.59 -44.56,-43.657 V 282.195 c 0,-33.066 18.65,-43.652 44.56,-43.652 26.21,0 44.87,10.586 44.87,43.652 v 149.414 c 0,33.067 -18.66,43.657 -44.87,43.657 z m 15.63,-43.907 v -148.91 c 0,-14.922 -6.81,-19.207 -15.63,-19.207 -8.57,0 -15.58,4.285 -15.58,19.207 v 148.91 c 0,14.918 7.01,19.204 15.58,19.204 8.82,0 15.63,-4.286 15.63,-19.204 z m 137.19,41.536 h -49.51 V 240.914 h 28.99 v 55.043 h 20.52 c 32.76,0 39.07,13.106 39.07,43.606 v 89.425 c 0,30.547 -6.31,43.907 -39.07,43.907 z m 10.64,-133.586 c 0,-14.871 -4.04,-19.153 -17.24,-19.153 h -13.92 v 128.289 h 13.92 c 13.2,0 17.24,-4.082 17.24,-19.203 z m 112.89,109.136 v 24.45 h -65.73 V 240.961 h 65.73 v 24.398 h -36.75 v 79.598 h 36.24 v 24.195 h -36.24 v 79.293 z m 110.47,-207.531 -19.1,80.551 c 10.03,6.301 15.32,17.644 15.32,35.039 v 72.484 c 0,30.547 -6.3,43.907 -39.07,43.907 h -49.5 V 240.914 h 28.99 v 73.496 h 20.26 l 16.69,-73.496 z m -63.36,96.18 v 111.351 h 13.91 c 13.21,0 17.24,-4.082 17.24,-19.203 V 356.25 c 0,-15.125 -4.03,-19.156 -17.24,-19.156 z m 142.03,111.351 v 24.45 H 1695.5 V 240.961 h 65.73 v 24.398 h -36.75 v 79.598 h 36.25 v 24.195 h -36.25 v 79.293 z m 17.22,-207.484 h 83.07 v 24.398 h -55.6 v 2.825 l 56.87,180.261 v 24.45 h -81.57 v -24.45 h 53.44 v -2.769 l -56.21,-180.317 z m 181.94,101.016 v 22.144 c 0,21.168 -11.54,27.996 -28.35,27.996 -16.62,0 -28.29,-6.828 -28.29,-27.996 v -20.195 c 0,-36.156 38.43,-31.766 38.43,-57.196 v -19.218 c 0,-9.43 -4.23,-12.387 -10.14,-12.387 -5.73,0 -10.12,2.957 -10.12,12.387 v 21.98 h -18.01 v -22.144 c 0,-21.133 11.51,-27.965 28.32,-27.965 16.78,0 28.48,6.832 28.48,27.965 v 20.195 c 0,36.16 -38.62,31.773 -38.62,57.199 v 19.219 c 0,9.43 4.38,12.387 10.14,12.387 5.72,0 10.11,-2.957 10.11,-12.387 v -21.984 z m 17.38,-102.981 c 5.82,0 10.54,4.711 10.54,10.567 0,5.687 -4.72,10.242 -10.54,10.242 -5.82,0 -10.53,-4.555 -10.53,-10.242 0,-5.856 4.71,-10.567 10.53,-10.567 z m 67.46,1.918 h 18.18 l -17.04,149.645 h -33.33 l -17.07,-149.645 h 18.21 l 3.25,30.465 h 24.55 z m -26.01,46.238 9.27,86.434 h 2.44 l 9.27,-86.434 z m 62.03,-48.156 c 5.82,0 10.54,4.711 10.54,10.567 0,5.687 -4.72,10.242 -10.54,10.242 -5.82,0 -10.54,-4.555 -10.54,-10.242 0,-5.856 4.72,-10.567 10.54,-10.567" /><path
         id="path18"
         style="fill:#244e9d;fill-opacity:1;fill-rule:evenodd;stroke:none"
         d="M 345.324,339.969 269.137,295.98 192.941,339.969 V 103.488 c 0,-20.8708 12.282,-32.238 14.922,-33.7458 l 49.883,-28.8008 c 6.93,-4.0039 18.055,-2.7266 25.496,1.5703 L 477.594,154.719 c 12.035,6.949 18.105,18.851 18.105,32.457 V 426.785 L 420.512,383.379 V 217.371 c 0,-5.09 -1.407,-9.601 -5.688,-12.074 L 269.137,121.184 v 86.82 l 76.187,43.988 z M 42.5703,426.785 v -234.41 c 0,-22.691 12.9649,-34.687 16.211,-36.559 l 74.3007,-42.898 c 0,0 -15.301,13.758 -15.301,36.449 l -0.023,234.012 -75.1877,43.406" /><path
         id="path20"
         style="fill:#3866b9;fill-opacity:1;fill-rule:evenodd;stroke:none"
         d="m 345.324,339.969 -76.187,43.988 -76.196,-43.988 76.196,-43.989 z m 150.375,86.816 -208.414,120.102 c -15.812,9.129 -30.23,3.246 -35.238,0.617 L 42.5703,426.785 117.758,383.379 262.379,466.875 c 2.121,1.176 6.84,3.289 12.328,0.684 l 145.805,-84.18 75.187,43.406" /><path
         id="path22"
         style="fill:#e9e8e8;fill-opacity:1;fill-rule:evenodd;stroke:none"
         d="m 117.758,383.379 75.187,-43.41 V 103.488 c 0.325,-16.1286 6.164,-26.4646 14.918,-33.7458 l -74.781,43.1758 c -9.422,9.488 -15.297,22.176 -15.305,36.449 z m 227.566,-43.41 75.188,43.41 V 217.371 c -0.02,-5.887 -1.875,-9.973 -5.688,-12.074 L 269.137,121.184 V 208 l 76.187,43.992 v 87.977" /></g></g></svg>